<svg xmlns="http://www.w3.org/2000/svg" version="1.1" xmlns:xlink="http://www.w3.org/1999/xlink" xmlns:svgjs="http://svgjs.com/svgjs" width="1440" height="560" preserveAspectRatio="none" viewBox="0 0 1440 560"><g mask="url(&quot;#SvgjsMask1000&quot;)" fill="none"><rect width="1440" height="560" x="0" y="0" fill="rgba(27, 113, 203, 1)"></rect><path d="M0,468.006C87.14,455.935,116.61,342.879,184.058,286.4C240.151,239.43,320.539,225.675,361.661,165.165C406.191,99.64,423.441,18.792,419.703,-60.344C415.731,-144.43,389.781,-226.721,339.943,-294.562C287.576,-365.846,220.902,-448.05,132.509,-451.284C42.633,-454.572,-10.569,-350.331,-91.122,-310.334C-152.83,-279.694,-226.935,-285.36,-282.816,-245.061C-348.359,-197.794,-431.397,-143.249,-434.769,-62.51C-438.19,19.413,-337.166,63.997,-298.748,136.434C-263.602,202.702,-270.243,286.65,-220.032,342.377C-162.33,406.419,-85.388,479.834,0,468.006" fill="#165aa2"></path><path d="M1440 947.62C1531.407 966.065 1635.129 1036.0059999999999 1711.801 982.931 1789.215 929.342 1738.826 799.9739999999999 1777.377 714.075 1815.526 629.072 1926.091 581.932 1933.454 489.052 1940.992 393.954 1877.374 307.23699999999997 1815.374 234.736 1753.101 161.916 1675.976 94.375 1581.633 77.64100000000002 1490.546 61.485000000000014 1401.523 105.57299999999998 1318.623 146.628 1246.665 182.264 1195.593 242.486 1137.286 297.697 1071.868 359.64099999999996 971.1659999999999 401.616 955.6220000000001 490.35699999999997 940.0899999999999 579.035 1009.633 659.155 1061.028 733.071 1105.358 796.825 1163.03 847.573 1230.603 885.829 1295.242 922.423 1367.189 932.927 1440 947.62" fill="#3188e4"></path></g><defs><mask id="SvgjsMask1000"><rect width="1440" height="560" fill="#ffffff"></rect></mask></defs></svg>